<svg xmlns="http://www.w3.org/2000/svg" viewBox="0 0 64 64" fill="none">
  <circle cx="32" cy="32" r="30" fill="#F39C12"/>
  <path d="M22 18L26 12L28 20L22 18Z" fill="#E67E22"/>
  <path d="M42 18L38 12L36 20L42 18Z" fill="#E67E22"/>
  <circle cx="32" cy="32" r="13" fill="#FFA07A"/>
  <circle cx="27" cy="30" r="2" fill="#2C3E50"/>
  <circle cx="37" cy="30" r="2" fill="#2C3E50"/>
  <path d="M28 34L32 36L36 34" stroke="#E74C3C" stroke-width="1.5" stroke-linecap="round" stroke-linejoin="round" fill="none"/>
  <circle cx="32" cy="34" r="1.5" fill="#FFA07A"/>
  <path d="M20 32C20 32 22 30 24 30" stroke="#E67E22" stroke-width="1" stroke-linecap="round"/>
  <path d="M44 32C44 32 42 30 40 30" stroke="#E67E22" stroke-width="1" stroke-linecap="round"/>
  <path d="M20 36C20 36 22 34 24 34" stroke="#E67E22" stroke-width="1" stroke-linecap="round"/>
  <path d="M44 36C44 36 42 34 40 34" stroke="#E67E22" stroke-width="1" stroke-linecap="round"/>
</svg>
