<svg xmlns="http://www.w3.org/2000/svg" viewBox="0 0 64 64" fill="none">
  <!-- Background circle -->
  <circle cx="32" cy="32" r="30" fill="#3498DB"/>
  <!-- Head -->
  <circle cx="32" cy="26" r="10" fill="#ECF0F1"/>
  <!-- Eyes -->
  <circle cx="28" cy="24" r="2" fill="#2C3E50"/>
  <circle cx="36" cy="24" r="2" fill="#2C3E50"/>
  <!-- Smile -->
  <path d="M26 28C26 28 28 31 32 31C36 31 38 28 38 28" stroke="#2C3E50" stroke-width="1.5" stroke-linecap="round" fill="none"/>
  <!-- Body -->
  <path d="M32 36C32 36 22 38 22 48C22 48 24 50 32 50C40 50 42 48 42 48C42 38 32 36 32 36Z" fill="#ECF0F1"/>
  <!-- Arms -->
  <ellipse cx="20" cy="42" rx="3" ry="6" fill="#ECF0F1"/>
  <ellipse cx="44" cy="42" rx="3" ry="6" fill="#ECF0F1"/>
</svg>
