<svg xmlns="http://www.w3.org/2000/svg" viewBox="0 0 64 64" fill="none">
  <circle cx="32" cy="32" r="30" fill="#ECF0F1"/>
  <path d="M20 28C20 20 25 14 32 14C39 14 44 20 44 28V46L40 42L36 46L32 42L28 46L24 42L20 46V28Z" fill="#FFFFFF"/>
  <circle cx="27" cy="26" r="3" fill="#2C3E50"/>
  <circle cx="37" cy="26" r="3" fill="#2C3E50"/>
  <circle cx="32" cy="34" r="6" fill="#ECF0F1" opacity="0.5"/>
  <path d="M28 32C28 32 30 34 32 34C34 34 36 32 36 32" stroke="#95A5A6" stroke-width="1.5" stroke-linecap="round"/>
  <path d="M18 38C18 38 16 36 14 36" stroke="#BDC3C7" stroke-width="2" stroke-linecap="round" opacity="0.5"/>
  <path d="M46 38C46 38 48 36 50 36" stroke="#BDC3C7" stroke-width="2" stroke-linecap="round" opacity="0.5"/>
</svg>
