<svg xmlns="http://www.w3.org/2000/svg" viewBox="0 0 64 64" fill="none">
  <circle cx="32" cy="32" r="30" fill="#E67E22"/>
  <circle cx="32" cy="30" r="12" fill="#F5CBA7"/>
  <path d="M20 22L26 18L32 20L38 18L44 22L42 26L38 24L32 26L26 24L22 26L20 22Z" fill="#2C3E50"/>
  <circle cx="26" cy="28" r="2" fill="#34495E"/>
  <path d="M34 26H42V30H34V26Z" fill="#1A1A1A"/>
  <rect x="35" y="27" width="6" height="2" fill="#C0392B"/>
  <path d="M26 34C26 34 28 36 32 36C34 36 36 35 36 34" stroke="#C0392B" stroke-width="1.5" stroke-linecap="round"/>
  <path d="M24 42C24 42 22 44 20 46L22 48C24 46 26 44 26 44L24 42Z" fill="#F5CBA7"/>
  <path d="M40 42C40 42 42 44 44 46L42 48C40 46 38 44 38 44L40 42Z" fill="#F5CBA7"/>
  <circle cx="40" cy="32" r="1" fill="#F39C12"/>
</svg>
